<svg xmlns="http://www.w3.org/2000/svg" version="1.1" xmlns:xlink="http://www.w3.org/1999/xlink" xmlns:svgjs="http://svgjs.dev/svgjs" viewBox="0 0 2400 800" opacity="0.1"><defs><linearGradient x1="50%" y1="0%" x2="50%" y2="100%" id="sssurf-grad"><stop stop-color="hsl(180, 69%, 40%)" stop-opacity="1" offset="0%"></stop><stop stop-color="hsl(180, 69%, 60%)" stop-opacity="1" offset="100%"></stop></linearGradient></defs><g fill="url(#sssurf-grad)" transform="matrix(1,0,0,1,0,-119.80874633789062)"><path d="M 0 315.7618400056222 Q 900 599.2865115850691 1200 304.61752108734873 Q 2100 539.2161531906398 2400 311.6514074169384 L 2400 800 L 0 800 L 0 333.13050144310523 Z" transform="matrix(1,0,0,1,0,67)" opacity="0.05"></path><path d="M 0 315.7618400056222 Q 900 599.2865115850691 1200 304.61752108734873 Q 2100 539.2161531906398 2400 311.6514074169384 L 2400 800 L 0 800 L 0 333.13050144310523 Z" transform="matrix(1,0,0,1,0,134)" opacity="0.37"></path><path d="M 0 315.7618400056222 Q 900 599.2865115850691 1200 304.61752108734873 Q 2100 539.2161531906398 2400 311.6514074169384 L 2400 800 L 0 800 L 0 333.13050144310523 Z" transform="matrix(1,0,0,1,0,201)" opacity="0.68"></path><path d="M 0 315.7618400056222 Q 900 599.2865115850691 1200 304.61752108734873 Q 2100 539.2161531906398 2400 311.6514074169384 L 2400 800 L 0 800 L 0 333.13050144310523 Z" transform="matrix(1,0,0,1,0,268)" opacity="1.00"></path></g></svg>