<?xml version="1.0" encoding="UTF-8" ?>
<!DOCTYPE svg PUBLIC "-//W3C//DTD SVG 1.1//EN" "http://www.w3.org/Graphics/SVG/1.1/DTD/svg11.dtd">
<svg width="512pt" height="512pt" viewBox="0 0 512 512" version="1.1" xmlns="http://www.w3.org/2000/svg">
<g id="#0d1826ff">
<path fill="#191a19" opacity="1.00" d=" M 209.74 20.72 C 247.56 10.73 288.62 13.34 324.82 28.20 C 357.12 41.31 385.38 64.04 405.32 92.61 C 423.83 118.92 434.93 150.24 437.58 182.27 C 455.90 181.31 474.60 187.38 488.32 199.68 C 502.20 211.71 510.59 229.40 512.00 247.65 L 512.00 298.44 C 510.96 313.40 505.37 328.07 495.61 339.52 C 483.00 354.67 463.73 364.00 444.01 364.37 C 436.35 364.41 428.69 364.44 421.04 364.37 C 415.05 364.30 409.48 360.23 407.26 354.73 C 405.77 351.35 406.16 347.59 406.11 344.00 C 406.13 300.33 406.11 256.66 406.12 212.99 C 406.07 201.31 406.46 189.57 404.90 177.96 C 401.14 147.33 387.50 118.06 366.60 95.37 C 345.40 72.17 316.74 55.89 285.91 49.73 C 259.78 44.46 232.23 46.19 207.03 54.95 C 176.33 65.43 149.36 86.31 131.32 113.24 C 114.91 137.53 105.99 166.74 105.91 196.04 C 105.83 247.04 105.94 298.04 105.85 349.04 C 105.89 355.70 101.11 362.37 94.43 363.64 C 84.77 365.88 74.72 365.44 64.94 364.39 C 50.84 363.04 37.00 357.94 26.00 348.91 C 10.26 336.36 0.60 316.74 0.00 296.63 L 0.00 247.73 C 1.32 229.89 9.36 212.60 22.68 200.58 C 36.48 187.75 55.60 181.23 74.36 182.31 C 77.48 144.80 92.27 108.32 116.67 79.60 C 140.66 51.04 173.60 30.07 209.74 20.72 Z" />
<path fill="#191a19" opacity="1.00" d=" M 67.37 382.61 C 73.47 382.94 79.58 383.25 85.69 382.88 C 89.84 404.15 101.89 423.76 119.06 437.01 C 134.35 449.00 153.58 455.85 173.01 456.18 C 177.72 456.23 182.43 456.18 187.14 456.21 C 186.14 462.15 186.12 468.24 187.13 474.19 C 179.04 474.14 170.91 474.50 162.86 473.54 C 138.21 470.88 114.66 459.40 97.31 441.71 C 81.50 425.76 70.90 404.78 67.37 382.61 Z" />
<path fill="#191a19" opacity="1.00" d=" M 233.25 433.36 C 247.18 433.00 261.12 433.30 275.05 433.20 C 284.64 432.99 294.19 437.36 300.27 444.79 C 308.43 454.40 309.97 468.94 304.00 480.04 C 298.73 490.36 287.51 497.26 275.91 497.25 C 261.98 497.22 248.04 497.39 234.11 497.16 C 217.79 496.38 203.86 481.39 204.37 465.05 C 204.07 449.12 217.40 434.57 233.25 433.36 Z" />
</g>
</svg>
