<svg xmlns="http://www.w3.org/2000/svg" version="1.1" xmlns:xlink="http://www.w3.org/1999/xlink" xmlns:svgjs="http://svgjs.dev/svgjs" viewBox="0 0 2400 800" opacity="0.22"><defs><linearGradient x1="50%" y1="0%" x2="50%" y2="100%" id="sssurf-grad"><stop stop-color="hsl(180, 69%, 40%)" stop-opacity="1" offset="0%"></stop><stop stop-color="hsl(180, 69%, 60%)" stop-opacity="1" offset="100%"></stop></linearGradient></defs><g fill="url(#sssurf-grad)" transform="matrix(1,0,0,1,0,-101.41683959960938)"><path d="M 0 324.53106560103356 Q 543.2526688149665 450 1200 315.8336936540543 Q 1768.577470411266 450 2400 322.1344740551736 L 2400 800 L 0 800 L 0 328.85858090288815 Z" transform="matrix(1,0,0,1,0,41)" opacity="0.05"></path><path d="M 0 324.53106560103356 Q 543.2526688149665 450 1200 315.8336936540543 Q 1768.577470411266 450 2400 322.1344740551736 L 2400 800 L 0 800 L 0 328.85858090288815 Z" transform="matrix(1,0,0,1,0,82)" opacity="0.24"></path><path d="M 0 324.53106560103356 Q 543.2526688149665 450 1200 315.8336936540543 Q 1768.577470411266 450 2400 322.1344740551736 L 2400 800 L 0 800 L 0 328.85858090288815 Z" transform="matrix(1,0,0,1,0,123)" opacity="0.43"></path><path d="M 0 324.53106560103356 Q 543.2526688149665 450 1200 315.8336936540543 Q 1768.577470411266 450 2400 322.1344740551736 L 2400 800 L 0 800 L 0 328.85858090288815 Z" transform="matrix(1,0,0,1,0,164)" opacity="0.62"></path><path d="M 0 324.53106560103356 Q 543.2526688149665 450 1200 315.8336936540543 Q 1768.577470411266 450 2400 322.1344740551736 L 2400 800 L 0 800 L 0 328.85858090288815 Z" transform="matrix(1,0,0,1,0,205)" opacity="0.81"></path><path d="M 0 324.53106560103356 Q 543.2526688149665 450 1200 315.8336936540543 Q 1768.577470411266 450 2400 322.1344740551736 L 2400 800 L 0 800 L 0 328.85858090288815 Z" transform="matrix(1,0,0,1,0,246)" opacity="1.00"></path></g></svg>